<svg xmlns="http://www.w3.org/2000/svg" version="1.1" xmlns:xlink="http://www.w3.org/1999/xlink" xmlns:svgjs="http://svgjs.dev/svgjs" width="1920" height="1080" preserveAspectRatio="none" viewBox="0 0 1920 1080"><g mask="url(&quot;#SvgjsMask1063&quot;)" fill="none"><rect width="1920" height="1080" x="0" y="0" fill="rgba(216, 218, 221, 1)"></rect><path d="M52 1080L1132 0L1750 0L670 1080z" fill="url(&quot;#SvgjsLinearGradient1064&quot;)"></path><path d="M707.6 1080L1787.6 0L2515.1 0L1435.1 1080z" fill="url(&quot;#SvgjsLinearGradient1064&quot;)"></path><path d="M1857 1080L777 0L48 0L1128 1080z" fill="url(&quot;#SvgjsLinearGradient1065&quot;)"></path><path d="M1207.4 1080L127.40000000000009 0L-762.0999999999999 0L317.9000000000001 1080z" fill="url(&quot;#SvgjsLinearGradient1065&quot;)"></path><path d="M1290.4300749217841 1080L1920 450.430074921784L1920 1080z" fill="url(&quot;#SvgjsLinearGradient1064&quot;)"></path><path d="M0 1080L629.569925078216 1080L 0 450.430074921784z" fill="url(&quot;#SvgjsLinearGradient1065&quot;)"></path></g><defs><mask id="SvgjsMask1063"><rect width="1920" height="1080" fill="#ffffff"></rect></mask><linearGradient x1="0%" y1="100%" x2="100%" y2="0%" id="SvgjsLinearGradient1064"><stop stop-color="rgba(100, 103, 107, 0.2)" offset="0"></stop><stop stop-opacity="0" stop-color="rgba(100, 103, 107, 0.2)" offset="0.66"></stop></linearGradient><linearGradient x1="100%" y1="100%" x2="0%" y2="0%" id="SvgjsLinearGradient1065"><stop stop-color="rgba(100, 103, 107, 0.2)" offset="0"></stop><stop stop-opacity="0" stop-color="rgba(100, 103, 107, 0.2)" offset="0.66"></stop></linearGradient></defs></svg>